<?xml version="1.0" standalone="no"?>
<!DOCTYPE svg PUBLIC "-//W3C//DTD SVG 20010904//EN"
 "http://www.w3.org/TR/2001/REC-SVG-20010904/DTD/svg10.dtd">
<svg version="1.0" xmlns="http://www.w3.org/2000/svg"
 width="1083.000000pt" height="1083.000000pt" viewBox="0 0 1083.000000 1083.000000"
 preserveAspectRatio="xMidYMid meet">
<metadata>
Created by potrace 1.11, written by Peter Selinger 2001-2013
</metadata>
<g transform="translate(0.000000,1083.000000) scale(0.100000,-0.100000)"
fill="#000000" stroke="none">
<path d="M8784 9691 l-1140 -1138 -25 17 c-122 89 -469 274 -664 353 -103 42
-361 133 -402 142 -10 2 -72 17 -138 34 -66 16 -140 32 -165 36 -25 3 -52 8
-61 11 -9 2 -32 7 -50 9 -19 3 -43 7 -55 9 -12 2 -45 7 -75 11 -30 3 -70 8
-89 11 -40 5 -117 11 -235 19 -44 3 -163 6 -265 6 -174 0 -232 -2 -390 -17
-36 -3 -81 -7 -100 -9 -100 -9 -349 -52 -460 -80 -77 -19 -108 -26 -128 -31
-12 -2 -88 -27 -170 -54 -81 -28 -154 -52 -162 -54 -8 -3 -71 -29 -140 -59
-567 -246 -1044 -599 -1419 -1048 -53 -63 -105 -128 -116 -143 -11 -16 -29
-40 -40 -55 -142 -183 -340 -545 -453 -831 -116 -291 -209 -662 -237 -945 -3
-33 -8 -73 -10 -90 -7 -53 -18 -297 -18 -387 1 -99 12 -323 19 -383 3 -22 6
-58 8 -80 4 -42 24 -182 32 -225 3 -14 7 -38 10 -55 3 -16 15 -68 26 -115 11
-47 22 -95 24 -107 2 -12 22 -81 44 -153 107 -357 265 -695 468 -1003 l65 -98
-1138 -1136 -1138 -1135 449 -449 c247 -247 453 -449 458 -449 4 0 519 510
1143 1132 624 623 1139 1132 1144 1130 5 -1 44 -24 87 -51 225 -141 479 -267
707 -353 129 -48 289 -99 355 -113 8 -2 42 -10 75 -19 33 -8 71 -17 85 -20 14
-2 43 -9 65 -14 22 -6 60 -13 86 -16 25 -3 52 -7 60 -10 7 -3 34 -8 59 -11
111 -13 222 -24 300 -31 112 -10 529 -10 655 -1 122 9 299 30 365 43 14 2 39
7 55 9 28 5 93 17 105 20 3 0 21 4 40 8 60 12 72 15 170 41 159 42 432 137
455 157 5 5 16 9 24 9 25 0 370 175 496 251 290 176 488 331 725 569 75 74
149 151 165 170 174 203 293 371 428 602 72 122 236 472 237 503 0 3 6 18 14
33 7 15 32 83 55 152 49 150 79 260 105 390 3 14 10 45 15 70 10 43 16 79 26
145 2 17 7 46 10 65 6 39 12 92 20 190 3 36 8 85 10 110 6 59 6 395 1 490 -40
657 -237 1274 -586 1830 -29 47 -64 100 -78 118 -14 18 -22 36 -18 40 3 4 515
516 1137 1138 l1131 1131 -452 451 c-249 249 -453 452 -454 452 -1 0 -515
-512 -1142 -1139z"/>
</g>
</svg>
