<?xml version="1.0" encoding="UTF-8"?>
<svg width="1617px" height="669px" viewBox="0 0 1617 669" version="1.1" xmlns="http://www.w3.org/2000/svg" xmlns:xlink="http://www.w3.org/1999/xlink">
    <title>Rangitikei</title>
    <g id="Patterns" stroke="none" stroke-width="1" fill="none" fill-rule="evenodd">
        <g id="Rangitikei" transform="translate(1.000000, 123.000000)">
            <g transform="translate(-1.000000, -123.000000)">
                <path d="M822,0 L1022,0 C1022,55.228475 977.228475,100 922,100 C866.771525,100 822,55.228475 822,0 Z" id="Shape" fill="#FE5E33"></path>
                <rect id="Shape" fill="#172B4D" x="586" y="0" width="200" height="200"></rect>
                <path d="M1318,128 C1373.22847,128 1418,172.771525 1418,228 L1418,328 L1418,328 L1218,328 L1218,228 C1218,172.771525 1262.77153,128 1318,128 Z" id="Shape" fill="#2DCE89" transform="translate(1318.000000, 228.000000) scale(1, -1) translate(-1318.000000, -228.000000) "></path>
                <path d="M1118,0 C1173.22847,-1.01453063e-14 1218,44.771525 1218,100 L1218,200 L1218,200 L1018,200 L1018,100 C1018,44.771525 1062.77153,1.01453063e-14 1118,0 Z" id="Shape" fill="#2DCE89" transform="translate(1118.000000, 100.000000) scale(-1, -1) translate(-1118.000000, -100.000000) "></path>
                <path d="M100,0 C155.228475,-1.01453063e-14 200,44.771525 200,100 L200,200 L200,200 L100,200 C44.771525,200 6.76353751e-15,155.228475 0,100 C-6.76353751e-15,44.771525 44.771525,1.01453063e-14 100,0 Z" id="Shape" fill="#FE5E33"></path>
                <rect id="Shape" fill="#FE5E33" x="683" y="0" width="200" height="200" rx="100"></rect>
                <path d="M664,200 L726,200 L726,200 L726,262 C726,296.241654 698.241654,324 664,324 C629.758346,324 602,296.241654 602,262 C602,227.758346 629.758346,200 664,200 Z" id="Shape" fill="#172B4D"></path>
                <path d="M1617,300 L1417,300 C1417,244.771525 1461.77153,200 1517,200 C1572.22847,200 1617,244.771525 1617,300 Z" id="Shape" fill="#172B4D"></path>
                <path d="M981,224 C981,279.228475 936.228475,324 881,324 C881,268.771525 925.771525,224 981,224 Z M781,424 C781,368.771525 825.771525,324 881,324 C881,379.228475 836.228475,424 781,424 Z M881,324 C825.771525,324 781,279.228475 781,224 C836.228475,224 881,268.771525 881,324 Z M881,324 C936.228475,324 981,368.771525 981,424 C925.771525,424 881,379.228475 881,324 Z" id="Shape" fill="#172B4D"></path>
                <rect id="Shape" fill="#2DCE89" x="1217" y="0" width="200" height="200"></rect>
                <rect id="Shape" fill="#FE5E33" x="383" y="0" width="200" height="200"></rect>
                <rect id="Shape" fill="#2DCE89" x="0" y="200" width="200" height="200"></rect>
                <path d="M1022,200 L1122,200 C1177.22847,200 1222,244.771525 1222,300 C1222,355.228475 1177.22847,400 1122,400 C1066.77153,400 1022,355.228475 1022,300 L1022,200 L1022,200 Z" id="Shape" fill="#172B4D"></path>
                <path d="M1373,496 C1332.13093,496 1299,462.645214 1299,421.5 C1299,380.354786 1332.13093,347 1373,347 L1373,496 Z" id="Shape" fill="#172B4D"></path>
                <path d="M1372,496 L1372,347 C1413.42136,347 1447,380.354786 1447,421.5 C1447,462.645214 1413.42136,496 1372,496 Z" id="Shape" fill="#FE5E33"></path>
                <path d="M582,200 L582,0 C637.228475,0 682,44.771525 682,100 C682,155.228475 637.228475,200 582,200 Z" id="Shape-Copy" fill="#FE5E33"></path>
                <path d="M286,200 L286,0 C341.228475,0 386,44.771525 386,100 C386,155.228475 341.228475,200 286,200 Z" id="Shape-Copy-3" fill="#FE5E33" transform="translate(336.000000, 100.000000) scale(-1, -1) translate(-336.000000, -100.000000) "></path>
                <rect id="Shape" fill="#FE5E33" x="17" y="400" width="200" height="200" rx="100"></rect>
                <path d="M1417,300 L1617,300 C1617,355.228475 1572.22847,400 1517,400 C1461.77153,400 1417,355.228475 1417,300 Z" id="Shape" fill="#FE5E33"></path>
                <path d="M200,200 C200,144.771525 244.771525,100 300,100 C300,155.228475 255.228475,200 200,200 Z" id="Shape" fill="#172B4D"></path>
                <path d="M999,122 C999,177.228475 954.228475,222 899,222 C899,166.771525 943.771525,122 999,122 Z" id="Shape" fill="#172B4D"></path>
                <path d="M1030,417 C1085.22847,417 1130,461.771525 1130,517 C1074.77153,517 1030,472.228475 1030,417 Z" id="Shape" fill="#172B4D"></path>
                <path d="M1567,250 C1567,305.228475 1522.22847,350 1467,350 C1467,294.771525 1511.77153,250 1567,250 Z" id="Shape" fill="#2DCE89"></path>
                <path d="M199,400 L199,200 C254.228475,200 299,244.771525 299,300 C299,355.228475 254.228475,400 199,400 Z" id="Shape-Copy-2" fill="#2DCE89"></path>
                <path d="M32,328 C32,272.771525 76.771525,228 132,228 C132,283.228475 87.228475,328 32,328 Z" id="Shape" fill="#172B4D" transform="translate(82.000000, 278.000000) scale(-1, 1) translate(-82.000000, -278.000000) "></path>
                <path d="M817,609 C805.722102,623.945034 784.642862,634 760.5,634 C736.357138,634 715.277898,623.945034 704,609 C715.277898,594.054966 736.357138,584 760.5,584 C784.642862,584 805.722102,594.054966 817,609 L817,609 Z" id="Shape" fill="#172B4D" transform="translate(760.500000, 609.000000) rotate(50.000000) translate(-760.500000, -609.000000) "></path>
                <path d="M479.5,371 C454.691243,356.72797 438,330.052471 438,299.5 C438,268.947529 454.691243,242.27203 479.5,228 C504.308757,242.27203 521,268.947529 521,299.5 C521,330.052471 504.308757,356.72797 479.5,371 L479.5,371 Z M396.5,371 C371.691243,356.72797 355,330.052471 355,299.5 C355,268.947529 371.691243,242.27203 396.5,228 C421.308757,242.27203 438,268.947529 438,299.5 C438,330.052471 421.308757,356.72797 396.5,371 L396.5,371 Z" id="Shape" fill="#172B4D"></path>
                <rect id="Shape" fill="#2DCE89" x="561" y="346" width="200" height="200" rx="100"></rect>
                <path d="M117,450 C144.614237,450 167,472.385763 167,500 C167,527.614237 144.614237,550 117,550 C89.3857625,550 67,527.614237 67,500 C67,472.385763 89.3857625,450 117,450 Z" id="Shape" fill="#172B4D"></path>
                <path d="M567.5,537 C586.553824,537 602,552.446176 602,571.5 C602,590.553824 586.553824,606 567.5,606 C548.446176,606 533,590.553824 533,571.5 C533,552.446176 548.446176,537 567.5,537 Z" id="Shape" fill="#2DCE89"></path>
                <path d="M1052,594 C1068.56854,594 1082,607.431458 1082,624 C1082,640.568542 1068.56854,654 1052,654 C1035.43146,654 1022,640.568542 1022,624 C1022,607.431458 1035.43146,594 1052,594 Z" id="Shape-Copy-4" fill="#FE5E33"></path>
                <path d="M885,463 C905.434536,463 922,479.565464 922,500 C922,520.434536 905.434536,537 885,537 C864.565464,537 848,520.434536 848,500 C848,479.565464 864.565464,463 885,463 Z" id="Shape" fill="#172B4D"></path>
                <path d="M437.5,258 C460.419817,258 479,276.356325 479,299 C479,321.643675 460.419817,340 437.5,340 C414.580183,340 396,321.643675 396,299 C396,276.356325 414.580183,258 437.5,258 Z" id="Shape" fill="#2DCE89"></path>
                <path d="M417,50 C444.614237,50 467,72.3857625 467,100 C467,127.614237 444.614237,150 417,150 C389.385763,150 367,127.614237 367,100 C367,72.3857625 389.385763,50 417,50 Z" id="Shape" fill="#172B4D"></path>
                <path d="M778,50 C805.614237,50 828,72.3857625 828,100 C828,127.614237 805.614237,150 778,150 C750.385763,150 728,127.614237 728,100 C728,72.3857625 750.385763,50 778,50 Z" id="Shape" fill="#2DCE89"></path>
                <path d="M1417,100 C1417,155.228475 1372.22847,200 1317,200 C1317,144.771525 1361.77153,100 1417,100 Z M1217,300 C1217,244.771525 1261.77153,200 1317,200 C1317,255.228475 1272.22847,300 1217,300 Z M1317,200 C1261.77153,200 1217,155.228475 1217,100 C1272.22847,100 1317,144.771525 1317,200 Z M1317,200 C1372.22847,200 1417,244.771525 1417,300 C1361.77153,300 1317,255.228475 1317,200 Z" id="Shape" fill="#172B4D"></path>
                <path d="M517,100 C517,44.771525 561.771525,0 617,0 C617,55.228475 572.228475,100 517,100 Z" id="Shape" fill="#FE5E33"></path>
                <path d="M1517,0 L1617,0 L1617,0 L1617,200 L1517,200 C1461.77153,200 1417,155.228475 1417,100 C1417,44.771525 1461.77153,1.01453063e-14 1517,0 Z" id="Shape" fill="#172B4D"></path>
                <path d="M1517,50 C1544.61424,50 1567,72.3857625 1567,100 C1567,127.614237 1544.61424,150 1517,150 C1489.38576,150 1467,127.614237 1467,100 C1467,72.3857625 1489.38576,50 1517,50 Z" id="Shape" fill="#FFFFFF"></path>
                <path d="M514,395 C514,450.228475 469.228475,495 414,495 C414,439.771525 458.771525,395 514,395 Z M314,595 C314,539.771525 358.771525,495 414,495 C414,550.228475 369.228475,595 314,595 Z M414,495 C358.771525,495 314,450.228475 314,395 C369.228475,395 414,439.771525 414,495 Z M414,495 C469.228475,495 514,539.771525 514,595 C458.771525,595 414,550.228475 414,495 Z" id="Shape" fill="#172B4D"></path>
                <path d="M761,446 C761,501.228475 716.228475,546 661,546 C661,490.771525 705.771525,446 761,446 Z M661,546 C605.771525,546 561,501.228475 561,446 C616.228475,446 661,490.771525 661,546 Z" id="Shape" fill="#172B4D"></path>
            </g>
        </g>
    </g>
</svg>