<?xml version="1.0" encoding="UTF-8"?>
<svg width="1615px" height="1173px" viewBox="0 0 1615 1173" version="1.1" xmlns="http://www.w3.org/2000/svg" xmlns:xlink="http://www.w3.org/1999/xlink">
    <title>Artboard</title>
    <g id="Artboard" stroke="none" stroke-width="1" fill="none" fill-rule="evenodd">
        <g id="index_bg-(2)" transform="translate(-127.000000, -126.000000)" fill-rule="nonzero">
            <path d="M833.000001,296 C697.687942,296 588.000001,186.312059 588.000001,51.0000001 L833.000001,51.0000001 L833.000001,296 Z" id="Path" fill="#2DCE89" transform="translate(710.500001, 173.500000) rotate(-49.000000) translate(-710.500001, -173.500000) "></path>
            <path d="M9.99999997e-07,126 C132.397955,126 239.729764,233.33181 239.729764,365.729763 L9.99999997e-07,365.729763 L9.99999997e-07,126 Z" id="Path" fill="#2DCE89" transform="translate(119.864882, 245.864881) rotate(90.000000) translate(-119.864882, -245.864881) "></path>
            <path d="M930,126 C974.1824,126 1010,161.8176 1010,206 C1010,250.1824 974.1824,286 930,286 C885.8176,286 850,250.1824 850,206 C850,161.8176 885.8176,126 930,126 Z" id="Path" fill="#172B4D" transform="translate(930.000000, 206.000000) rotate(90.000000) translate(-930.000000, -206.000000) "></path>
            <path d="M414.000001,126 C546.397955,126 653.729764,233.33181 653.729764,365.729763 L414.000001,365.729763 L414.000001,126 Z" id="Path" fill="#FE5E33" transform="translate(533.864883, 245.864882) rotate(90.000000) translate(-533.864883, -245.864882) "></path>
            <path d="M247.058248,849.322561 L247.058248,729.45768 C247.058248,663.258703 193.392343,609.592798 127.193366,609.592798 L127.193366,729.45768 C127.193366,795.656656 180.859271,849.322561 247.058248,849.322561 Z" id="Path" fill="#172B4D"></path>
            <path d="M1680.98172,247.189358 L1561.11684,247.189358 C1494.91786,247.189358 1441.25196,300.855263 1441.25196,367.05424 L1561.11684,367.05424 C1627.31581,367.05424 1680.98172,313.388335 1680.98172,247.189358 Z" id="Path" fill="#172B4D"></path>
            <path d="M1349.32077,171.77698 L1229.45589,171.77698 C1163.25692,171.77698 1109.59101,225.442885 1109.59101,291.641862 L1229.45589,291.641862 C1295.65487,291.641862 1349.32077,237.975957 1349.32077,171.77698 Z" id="Path" fill="#172B4D" transform="translate(1229.455889, 231.709421) rotate(-12.000000) translate(-1229.455889, -231.709421) "></path>
            <path d="M1681.72976,366 L1561.86488,366 C1495.6659,366 1442,419.665425 1442,485.864882 L1561.86488,485.864882 C1628.06386,485.864882 1681.72976,432.199456 1681.72976,366 Z" id="Path" fill="#F0F1F1" transform="translate(1561.864880, 425.932441) scale(-1, 1) rotate(-180.000000) translate(-1561.864880, -425.932441) "></path>
            <path d="M1532,127 L1320.5,127 C1203.69278,127 1109,180.665425 1109,246.864882 L1320.5,246.864882 C1437.30722,246.864882 1532,193.199456 1532,127 Z" id="Path" fill="#172B4D" transform="translate(1320.500000, 186.932441) scale(-1, 1) rotate(-180.000000) translate(-1320.500000, -186.932441) "></path>
            <path d="M1407.5,107 C1442.0175,107 1470,134.9825 1470,169.5 C1470,204.0175 1442.0175,232 1407.5,232 C1372.9825,232 1345,204.0175 1345,169.5 C1345,134.9825 1372.9825,107 1407.5,107 Z" id="Path" fill="#FFFFFF" transform="translate(1407.500000, 169.500000) rotate(90.000000) translate(-1407.500000, -169.500000) "></path>
            <path d="M1486.5,127 C1521.0175,127 1549,154.9825 1549,189.5 C1549,224.0175 1521.0175,252 1486.5,252 C1451.9825,252 1424,224.0175 1424,189.5 C1424,154.9825 1451.9825,127 1486.5,127 Z" id="Path" fill="#172B4D" transform="translate(1486.500000, 189.500000) rotate(90.000000) translate(-1486.500000, -189.500000) "></path>
            <path d="M962.859654,126 L842.994772,126 C776.795795,126 723.12989,179.665425 723.12989,245.864882 L842.994772,245.864882 C909.193749,245.864882 962.859654,192.199456 962.859654,126 Z" id="Path" fill="#F0F1F1"></path>
            <path d="M1777.72976,245.864882 L1657.86488,245.864882 C1591.6659,245.864882 1538,192.199472 1538,126 L1657.86488,126 C1724.06386,126 1777.72976,179.665445 1777.72976,245.864882 Z" id="Path" fill="#F0F1F1"></path>
            <path d="M211.330204,1131.55102 L331.220766,1131.57122 C397.433923,1131.58236 451.102152,1078.67777 451.090843,1013.40674 L331.200282,1013.38654 C264.987125,1013.3754 211.318895,1066.28 211.330204,1131.55102 Z" id="Path" fill="#172B4D" transform="translate(331.210524, 1072.478880) scale(-1, 1) rotate(-32.000000) translate(-331.210524, -1072.478880) "></path>
            <path d="M413.696401,126 L413.696401,245.258913 C413.696401,311.792554 467.362305,365.729763 533.561282,365.729763 L533.561282,246.47085 C533.561282,179.9348 479.895377,126 413.696401,126 L413.696401,126 Z" id="Path" fill="#172B4D"></path>
            <path d="M414.455293,126 L414.455293,365.729763 C414.455293,498.127717 307.123484,605.459526 174.72553,605.459526 L174.72553,365.729763 C174.72553,233.33181 282.05734,126 414.455293,126 Z" id="Path" fill="#F0F1F1"></path>
            <path d="M247.058248,370.896353 L247.058248,490.155266 C247.058248,556.688907 193.392343,610.626116 127.193366,610.626116 L127.193366,491.367203 C127.193366,424.831152 180.859271,370.896353 247.058248,370.896353 L247.058248,370.896353 Z" id="Path" fill="#2DCE89"></path>
            <path d="M482.654739,900.988458 L363.395826,900.988458 C296.862185,900.988458 242.924976,954.654363 242.924976,1020.85334 L362.183889,1020.85334 C428.71994,1020.85334 482.654739,967.187435 482.654739,900.988458 Z" id="Path" fill="#2DCE89"></path>
            <path d="M505.790292,1120.554 L563.587385,1120.554 C595.831945,1120.554 621.971827,1146.5624 621.971827,1178.64477 L564.174733,1178.64477 C531.929006,1178.64477 505.790292,1152.63637 505.790292,1120.554 L505.790292,1120.554 Z" id="Path" fill="#FB6340" transform="translate(563.881059, 1149.599380) rotate(33.000000) translate(-563.881059, -1149.599380) "></path>
            <path d="M1543.91154,1286.21101 L1543.91154,1166.95089 C1543.91154,1100.41792 1597.57744,1046.48125 1663.77642,1046.48125 L1663.77642,1165.74138 C1663.77642,1232.27435 1610.11052,1286.21101 1543.91154,1286.21101 Z" id="Path" fill="#172B4D" transform="translate(1603.843980, 1166.346132) rotate(35.000000) translate(-1603.843980, -1166.346132) "></path>
            <path d="M1515.97268,1010.0035 C1515.97268,970.339747 1548.12453,938.187904 1587.78828,938.187904 C1627.45204,938.187904 1659.60388,970.339747 1659.60388,1010.0035 C1659.60388,1049.66726 1627.45204,1081.8191 1587.78828,1081.8191 C1548.12453,1081.8191 1515.97268,1049.66726 1515.97268,1010.0035 L1515.97268,1010.0035 Z" id="Path" fill="#2DCE89"></path>
            <path d="M1552.13881,1010.0035 C1552.13881,990.315488 1568.10027,974.354032 1587.78828,974.354032 C1607.47629,974.354032 1623.43775,990.315488 1623.43775,1010.0035 C1623.43775,1029.69152 1607.47629,1045.65297 1587.78828,1045.65297 C1568.10027,1045.65297 1552.13881,1029.69152 1552.13881,1010.0035 L1552.13881,1010.0035 Z" id="Path" fill="#F0F1F1"></path>
            <path d="M1347.54186,1046.16963 C1347.54186,1026.48162 1363.50331,1010.52016 1383.19133,1010.52016 C1402.87934,1010.52016 1418.8408,1026.48162 1418.8408,1046.16963 C1418.8408,1065.85764 1402.87934,1081.8191 1383.19133,1081.8191 C1363.50331,1081.8191 1347.54186,1065.85764 1347.54186,1046.16963 Z" id="Path" fill="#2DCE89"></path>
            <path d="M1621.37111,888.071984 C1621.37111,868.383971 1637.33257,852.422515 1657.02058,852.422515 C1676.7086,852.422515 1692.67005,868.383971 1692.67005,888.071984 C1692.67005,907.759998 1676.7086,923.721453 1657.02058,923.721453 C1637.33257,923.721453 1621.37111,907.759998 1621.37111,888.071984 Z" id="Path" fill="#FB6340"></path>
            <path d="M639,306.649469 C639,286.961456 654.961456,271 674.649469,271 C694.337483,271 710.298938,286.961456 710.298938,306.649469 C710.298938,326.337483 694.337483,342.298938 674.649469,342.298938 C654.961456,342.298938 639,326.337483 639,306.649469 Z" id="Path" fill="#F0F1F1"></path>
            <path d="M1568,366.649469 C1568,346.961456 1583.96146,331 1603.64947,331 C1623.33748,331 1639.29894,346.961456 1639.29894,366.649469 C1639.29894,386.337483 1623.33748,402.298938 1603.64947,402.298938 C1583.96146,402.298938 1568,386.337483 1568,366.649469 Z" id="Path" fill="#FB6340"></path>
            <path d="M198.492304,1001.73696 C198.492304,1021.42497 182.531562,1037.38643 162.842835,1037.38643 C143.154109,1037.38643 127.193366,1021.42497 127.193366,1001.73696 C127.193366,982.048945 143.154109,966.087489 162.842835,966.087489 C182.531562,966.087489 198.492304,982.048945 198.492304,1001.73696 L198.492304,1001.73696 Z" id="Path" fill="#FB6340"></path>
            <path d="M1747.72976,722.729763 C1615.33181,722.729763 1508,615.397954 1508,483 L1747.72976,483 L1747.72976,722.729763 Z" id="Path" fill="#F0F1F1"></path>
            <path d="M211.925438,907.705025 C211.925438,927.393039 195.964695,943.354494 176.275969,943.354494 C156.587242,943.354494 140.626499,927.393039 140.626499,907.705025 C140.626499,888.017012 156.587242,872.055556 176.275969,872.055556 C195.964695,872.055556 211.925438,888.017012 211.925438,907.705025 Z" id="Path" fill="#2DCE89"></path>
            <g id="Group" transform="translate(251.000000, 143.000000)">
                <path d="M1406,781.032856 C1406,763.341228 1420.34123,749 1438.03286,749 C1455.72448,749 1470.06571,763.341228 1470.06571,781.032856 C1470.06571,798.724484 1455.72448,813.065713 1438.03286,813.065713 C1420.34123,813.065713 1406,798.724484 1406,781.032856 Z" id="Path" fill="#172B4D"></path>
                <path d="M30.15774,712.522469 C30.15774,694.830841 44.499443,680.489613 62.190596,680.489613 C79.88175,680.489613 94.223452,694.830841 94.223452,712.522469 C94.223452,730.214097 79.88175,744.555325 62.190596,744.555325 C44.499443,744.555325 30.15774,730.214097 30.15774,712.522469 Z" id="Path" fill="#2DCE89"></path>
                <path d="M-2.84217094e-14,32.032856 C-2.84217094e-14,14.341228 14.341703,0 32.032856,0 C49.72401,0 64.065713,14.341228 64.065713,32.032856 C64.065713,49.724484 49.72401,64.065713 32.032856,64.065713 C14.341703,64.065713 -2.84217094e-14,49.724484 -2.84217094e-14,32.032856 L-2.84217094e-14,32.032856 Z" id="Path" fill="#2DCE89"></path>
            </g>
            <path d="M1744.99815,759.997873 C1744.99815,725.757871 1717.24028,698 1682.99787,698 C1648.75787,698 1621,725.757871 1621,759.997873 C1621,794.240283 1648.75787,821.998153 1682.99787,821.998153 L1744.99815,821.998153 L1744.99815,759.997873 Z" id="Path" fill="#F0F1F1" transform="translate(1682.999079, 759.999077) scale(-1, 1) translate(-1682.999079, -759.999077) "></path>
            <path d="M1442,206 C1442,154.08568 1399.91432,112 1348,112 C1296.08568,112 1254,154.08568 1254,206 C1254,257.91432 1296.08568,300 1348,300 L1442,300 L1442,206 Z" id="Path" fill="#FB6340"></path>
            <path d="M1531.99815,245.997874 C1531.99815,211.757872 1504.24028,184.000001 1469.99787,184.000001 C1435.75787,184.000001 1408,211.757872 1408,245.997874 C1408,280.240284 1435.75787,307.998154 1469.99787,307.998154 L1531.99815,307.998154 L1531.99815,245.997874 Z" id="Path" fill="#2DCE89" transform="translate(1469.999075, 245.999077) scale(-1, 1) rotate(-180.000000) translate(-1469.999075, -245.999077) "></path>
            <path d="M962.503912,213 C962.503912,261.04836 1001.45555,300 1049.50391,300 C1097.55227,300 1136.50391,261.04836 1136.50391,213 C1136.50391,164.95164 1097.55227,126 1049.50391,126 L962.503912,126 L962.503912,213 Z" id="Path" fill="#FB6340"></path>
            <path d="M962.503912,183.501116 C962.503912,215.25643 988.247482,241 1020.00503,241 C1051.76034,241 1077.50391,215.25643 1077.50391,183.501116 C1077.50391,151.74357 1051.76034,126 1020.00503,126 L962.503912,126 L962.503912,183.501116 Z" id="Path" fill="#172B4D"></path>
            <path d="M242,679.5 C242,622.33902 288.33902,576 345.5,576 C402.66098,576 449,622.33902 449,679.5 C449,736.66098 402.66098,783 345.5,783 C288.33902,783 242,736.66098 242,679.5 Z" id="Path" fill="#F0F1F1"></path>
            <path d="M288,679.5 C288,647.744384 313.744384,622 345.5,622 C377.255616,622 403,647.744384 403,679.5 C403,711.255616 377.255616,737 345.5,737 C313.744384,737 288,711.255616 288,679.5 Z" id="Path" fill="#172B4D"></path>
            <path d="M1742.93152,607.931516 C1675.58946,607.931516 1621,553.342059 1621,485.999999 L1742.93152,485.999999 L1742.93152,607.931516 Z" id="Path" fill="#FB6340" transform="translate(1681.965760, 546.965758) scale(-1, 1) rotate(-90.000000) translate(-1681.965760, -546.965758) "></path>
            <path d="M1584.47574,709.505494 C1584.47574,689.817481 1600.4372,673.856025 1620.12521,673.856025 C1639.81323,673.856025 1655.77468,689.817481 1655.77468,709.505494 C1655.77468,729.193508 1639.81323,745.154963 1620.12521,745.154963 C1600.4372,745.154963 1584.47574,729.193508 1584.47574,709.505494 Z" id="Path" fill="#2DCE89"></path>
            <path d="M1633,411.649469 C1633,391.961456 1648.96146,376 1668.64947,376 C1688.33748,376 1704.29894,391.961456 1704.29894,411.649469 C1704.29894,431.337483 1688.33748,447.298938 1668.64947,447.298938 C1648.96146,447.298938 1633,431.337483 1633,411.649469 Z" id="Path" fill="#2DCE89"></path>
            <path d="M11.0000025,1176.86488 C11.0000025,1110.6659 64.6659073,1057 130.864884,1057 C197.06386,1057 250.729765,1110.6659 250.729765,1176.86488 C250.729765,1243.06386 197.06386,1296.72976 130.864884,1296.72976 C64.6659073,1296.72976 11.0000025,1243.06386 11.0000025,1176.86488 Z" id="Path" fill="#2DCE89" transform="translate(130.864884, 1176.864881) rotate(90.000000) translate(-130.864884, -1176.864881) "></path>
        </g>
    </g>
</svg>