<svg fill="none" height="388" viewBox="0 0 565 388" width="565" xmlns="http://www.w3.org/2000/svg" xmlns:xlink="http://www.w3.org/1999/xlink"><linearGradient id="a" gradientUnits="userSpaceOnUse" x1="509.946" x2="353.838" y1="339.024" y2="105.272"><stop offset="0" stop-color="#191d3c" stop-opacity="0"/><stop offset="1" stop-color="#04042b"/></linearGradient><linearGradient id="b" gradientUnits="userSpaceOnUse" x1="102.324" x2="18.8568" y1="272.445" y2="187.984"><stop offset="0" stop-color="#161676"/><stop offset=".588542" stop-color="#2f1aac"/><stop offset="1" stop-color="#934ee6"/></linearGradient><linearGradient id="c"><stop offset="0" stop-color="#25179b"/><stop offset="1" stop-color="#7e3ac6"/></linearGradient><linearGradient id="d" gradientUnits="userSpaceOnUse" x1="164.553" x2="167.538" xlink:href="#c" y1="372.937" y2="296.108"/><linearGradient id="e" gradientUnits="userSpaceOnUse" x1="353.291" x2="347.839" y1="85.0492" y2="30.3492"><stop offset="0" stop-color="#161671"/><stop offset="1" stop-color="#070741"/></linearGradient><linearGradient id="f" gradientUnits="userSpaceOnUse" x1="308.511" x2="157.24" y1="194.393" y2="146.106"><stop offset="0" stop-color="#0d0d43"/><stop offset="1" stop-color="#161691"/></linearGradient><linearGradient id="g" gradientUnits="userSpaceOnUse" x1="258.947" x2="165.199" y1="147.398" y2="121.779"><stop offset="0" stop-color="#080865"/><stop offset="1" stop-color="#1919a2"/></linearGradient><linearGradient id="h" gradientUnits="userSpaceOnUse" x1="215.919" x2="247.451" y1="311.781" y2="57.2329"><stop offset="0" stop-color="#0c0c61"/><stop offset=".4778" stop-color="#171797"/><stop offset=".820103" stop-color="#742ac2"/><stop offset="1" stop-color="#945fd1"/></linearGradient><linearGradient id="i" gradientUnits="userSpaceOnUse" x1="219.215" x2="223.937" y1="201.179" y2="79.6817"><stop offset="0" stop-color="#7721bf"/><stop offset=".505208" stop-color="#8e58d3"/><stop offset="1" stop-color="#d7c9f1"/></linearGradient><radialGradient id="j" cx="0" cy="0" gradientTransform="matrix(-115.30999891 -4.48015191 4.47871543 -115.2730268 87.666 337.15)" gradientUnits="userSpaceOnUse" r="1"><stop offset="0" stop-color="#8a24f9"/><stop offset="1" stop-color="#0d0d90"/></radialGradient><linearGradient id="k" gradientUnits="userSpaceOnUse" x1="151.581" x2="85.3997" y1="263.714" y2="267.148"><stop offset="0" stop-color="#08082f"/><stop offset="1" stop-color="#0d0d7f"/></linearGradient><linearGradient id="l" gradientUnits="userSpaceOnUse" x1="139.755" x2="86.3858" y1="270.403" y2="273.172"><stop offset="0" stop-color="#115"/><stop offset="1" stop-color="#5d0bcd"/></linearGradient><linearGradient id="m" gradientUnits="userSpaceOnUse" x1="127.255" x2="128.602" xlink:href="#c" y1="213.585" y2="178.927"/><radialGradient id="n" cx="0" cy="0" gradientTransform="matrix(-61.60423955 .2107394 -.21961579 -64.19902436 97.7171 329.598)" gradientUnits="userSpaceOnUse" r="1"><stop offset="0" stop-color="#fff" stop-opacity=".58"/><stop offset=".71875" stop-color="#fff" stop-opacity="0"/></radialGradient><linearGradient id="o" gradientUnits="userSpaceOnUse" x1="200.928" x2="190.256" y1="86.6359" y2="80.0342"><stop offset="0" stop-color="#4d4d8a"/><stop offset=".38701" stop-color="#6767a9"/><stop offset=".76487" stop-color="#b9b9d6"/><stop offset="1" stop-color="#fff"/></linearGradient><linearGradient id="p" gradientUnits="userSpaceOnUse" x1="241.323" x2="212.161" y1="210.796" y2="188.647"><stop offset="0" stop-color="#1a1aac"/><stop offset="1" stop-color="#7656de"/></linearGradient><linearGradient id="q" gradientUnits="userSpaceOnUse" x1="188.646" x2="163.357" y1="189.27" y2="188.287"><stop offset="0" stop-color="#09093a"/><stop offset="1" stop-color="#0d0d6f"/></linearGradient><path d="m400.772 143.636c21.414.832 34.11 17.508 44.959 31.763 11.475 15.063 21.335 28.036 38.638 25.912 2.548-.402 5.061-1.003 7.514-1.799 2.283-.67 4.564-1.333 6.892-1.775 11.534-2.023 23.412.123 33.508 6.054 10.097 5.93 17.753 15.258 21.6 26.315 5.544 15.92 2.569 37.592-22.396 50.673-17.754 9.308-39.261 12.464-60.059 15.517-14.005 1.395-27.798 4.428-41.096 9.037-17.489 7.418-23.78 16.27-25.973 22.384-.883 2.307-1.282 4.771-1.171 7.239.112 2.467.73 4.886 1.817 7.104 5.037 9.688 13.167 12.82 26.638 18.018 2.977 1.147 6.149 2.371 9.541 3.767.574.235 1.097.58 1.538 1.017.441.436.791.956 1.031 1.528.239.573.364 1.187.365 1.807.002.621-.119 1.235-.355 1.809-.237.574-.584 1.095-1.022 1.534-.439.439-.96.788-1.533 1.025-.573.238-1.188.36-1.809.359-.62 0-1.235-.123-1.808-.361-3.318-1.366-6.429-2.56-9.346-3.685-13.928-5.373-24.928-9.614-31.613-22.463-1.687-3.373-2.659-7.057-2.858-10.823-.198-3.766.382-7.532 1.705-11.063 2.829-7.887 10.54-19.13 31.171-27.882 14.028-4.953 28.6-8.204 43.404-9.685 20.021-2.933 40.717-5.977 57.054-14.54 16.693-8.742 23.371-23.408 17.867-39.218-3.171-8.875-9.354-16.358-17.475-21.145-8.12-4.788-17.663-6.576-26.966-5.055-2.025.386-4.009.972-5.987 1.558-2.94.948-5.954 1.651-9.01 2.103-22.659 2.899-35.184-13.627-47.315-29.558-16.132-21.177-30.056-39.487-66.441-19.749l-4.191 2.29c-9.968 6.017-20.656 10.752-31.81 14.093-21.033 5.388-33.56-5.111-55.654-25.707-.915-.853-1.454-2.034-1.498-3.284s.411-2.467 1.265-3.381c.853-.915 2.035-1.454 3.285-1.497 1.251-.044 2.467.411 3.382 1.264 22.115 20.61 31.234 27.491 46.881 23.466 10.386-3.149 20.334-7.591 29.61-13.222l4.239-2.316c10.106-6.103 21.675-9.361 33.482-9.428z" fill="url(#a)"/><path d="m12.0669 173.747c3.0873 5.682 7.1578 10.772 12.0223 15.033 1.2546.536 17.3637-13.308 16.397-15.074-2.7558-5.033-8.2282-6.669-10.3453-13.095-1.3419-4.073-2.2756-14.976-6.2535-13.278-4.9459 2.111-2.4031 8.103-1.644 13.068-1.7448-1.289-3.6329-2.82-3.6329-2.82-1.6155-3.265-1.917-9.143-5.2508-11.75-5.35372-4.185-7.32705 11.844-1.2928 27.916z" fill="#151538"/><path d="m18.8688 185.221c1.5707 5.609 25.3175 31.407 35.1446 41.913 2.6722 2.841 4.7264 6.205 6.0327 9.88 4.389 12.438 16.2168 42.668 30.21 51.352 14.3969 8.933 34.6669 1.646 48.3269-2.712 5.948-1.898 1.677-15.571-6.533-24.557l-39.8048-50.432c-2.5382-3.221-5.4311-6.145-8.6239-8.719-11.638-9.374-40.6963-32.39-47.2301-33.808-6.3261-1.373-19.7216 9.232-17.5224 17.083z" fill="url(#b)"/><path d="m73.5307 201.554c3.1931 2.573 6.086 5.498 8.6239 8.719l39.8054 50.432c.588.643 1.106 1.352 1.651 2.037 4.438 1.682 8.878 3.359 13.319 5.031-1.397-2.385-3.032-4.622-4.881-6.676l-39.8052-50.432c-2.5383-3.221-5.4311-6.146-8.6239-8.719-11.638-9.375-40.6963-32.391-47.2301-33.808-2.1803-.236-4.3796.218-6.2878 1.298 15.0757 9.871 29.5755 20.595 43.4287 32.118z" fill="#04042b" opacity=".2"/><path d="m286.404 136.78c.316.347.707.641 1.566 1.384 2.302 2.028 5.161 3.314 8.205 3.692 15.529 2.018 20.256-17.811 26.179-26.4 3.667-4.706 6.8-9.803 9.343-15.199 1.987-3.8857 2.632-8.3202 1.833-12.6111-.798-4.2909-2.995-8.1971-6.247-11.1089-2.916-2.3813-6.434-3.9105-10.164-4.419-1.905-.3442-3.869-.1203-5.648.6437-1.778.7641-3.292 2.0345-4.353 3.653-1.734 2.5828-15.877 41.6223-19 44.0623-2.534 1.98-3.061.867-3.849 4.826-.644 1.937-.786 4.006-.412 6.013.373 2.007 1.25 3.887 2.547 5.464z" fill="#04042b"/><path d="m289.556 137.046c13.896 6.342 20.173-7.669 24.175-15.562 3.355-6.616 8.754-11.967 12.652-18.279 8.093-13.1036 4.637-31.3633-11.152-31.6927-10.158-.2121-13.42 16.4365-19.061 19.587-6.628 3.702-17.076-3.0717-21.859 5.7043-6.357 11.6644-11.188 26.2734 1.036 31.3454 4.892 2.71 9.635 5.68 14.209 8.897z" fill="#090941"/><path d="m308.803 77.7341c15.788.3301 19.245 18.5891 11.151 31.6929-1.183 2.254-2.228 4.578-3.131 6.959 4.369-3.535 8.038-7.856 10.818-12.74 8.093-13.1042 3.38-31.8039-12.409-32.1333-2.168.1927-4.249.9438-6.04 2.1801-1.791 1.2362-3.23 2.9154-4.179 4.8737 1.183-.5632 2.48-.848 3.79-.8324z" fill="#04042b"/><path d="m239.652 125.027 36.231 5.248c12.639 2.846 25.051-34.897 10.811-39.1307-11.74-3.4914-25.949-8.556-39.877-13.4375z" fill="#080830"/><path d="m114.023 295.75 41.245-140.104 104.664-48.097-39.608 141.461z" fill="#151563"/><path d="m218.687 247.653 41.245-140.104 36.918 33.752-41.245 140.104z" fill="#080830"/><path d="m114.025 295.75 104.664-48.097 36.917 33.752-104.67 48.097z" fill="#040423"/><path d="m99.5059 345.629 13.6671-46 104.664-48.097-12.465 47.435z" fill="#151563"/><path d="m204.17 297.532 13.667-46 36.918 33.752-22.169 38.14z" fill="#080830"/><path d="m99.5052 345.629 104.6638-48.097 28.417 25.891-104.664 48.091z" fill="url(#d)"/><path d="m352.411 86.0405c.404.2396.864.4059 1.903.8647 2.796 1.2616 5.907 1.6518 8.928 1.1196 15.437-2.6319 14.128-22.9754 17.265-32.9246 2.123-5.5744 3.62-11.3671 4.465-17.2717.757-4.2982.07-8.7263-1.954-12.5935-2.024-3.8671-5.272-6.9557-9.236-8.7841-3.487-1.4198-7.299-1.8486-11.015-1.2391-1.922.2305-3.733 1.0214-5.208 2.2741-1.476 1.2527-2.55 2.9118-3.088 4.7705-.899 2.9777-2.945 44.448-5.212 47.698-1.841 2.6367-2.673 1.7283-2.261 5.743-.047 2.041.426 4.0603 1.372 5.8692.947 1.8089 2.337 3.3481 4.041 4.4739z" fill="#04042b"/><path d="m355.502 85.3706c15.146 1.9805 17.029-13.2556 18.535-21.9756 1.263-7.3095 4.85-14.0095 6.722-21.1883 3.884-14.9022-4.785-31.3412-19.974-27.0194-9.771 2.7806-7.997 19.6523-12.463 24.3207-5.247 5.485-17.226 2.0788-19.219 11.8724-2.648 13.0166-2.973 28.3993 10.203 29.6581 5.472 1.154 10.878 2.6001 16.196 4.3321z" fill="url(#e)"/><path d="m356.468 23.0229c15.189-4.3211 23.859 12.1173 19.973 27.0201-.467 2.5025-.784 5.031-.948 7.5716 3.138-4.6627 5.375-9.8709 6.596-15.356 3.886-14.9021-5.875-31.7838-21.064-27.462-1.857.5283-4.613 2.823-5.67 4.283-1.058 1.46-1.933 3.7016-2.264 5.852.965-.8858 2.12-1.5388 3.377-1.9087z" fill="#04042b"/><path d="m216.192 242.812c11.874-15.984 39.228-104.827 42.641-112.625 10.139-23.16 20.935-43.5661 20.935-43.5661l59.501-4.0029c12.952-.3329 15.748-40.0098.903-40.5867-1.17-.0454-45.885-8.1746-69.12-9.0502-7.254-.2763-14.365 2.0644-20.035 6.5947-12.33 10.0041-24.067 20.7164-35.153 32.0825 0 0-6.033-1.7978-13.581-3.3431-15.857-3.2476-27.084 6.5818-33.942 18.4817-16.586 28.7821-23.07 40.1151-41.226 75.5191-16.081 31.421-36.6483 73.152-39.1601 85.961-1.1481 4.445-1.3633 9.079-.6319 13.61.7313 4.532 2.3933 8.864 4.8814 12.722 2.488 3.858 5.7482 7.16 9.5756 9.697 3.827 2.536 8.138 4.254 12.661 5.043 21.654 4.63 87.858-27.836 101.751-46.537z" fill="url(#f)"/><path d="m114.612 155.716c1.45.054 2.869.434 4.15 1.114 5.304 3.267 9.352 8.225 11.491 14.074.316.923.255 1.934-.172 2.812-.427.877-1.184 1.55-2.106 1.871s-1.933.264-2.813-.159c-.879-.423-1.556-1.177-1.881-2.097-1.528-4.1-4.331-7.603-7.998-9.992-.566-.275-1.215-.321-1.813-.128-.21.062-.404.167-.572.306-.168.14-.306.312-.406.507-1.822 8.476-1.806 17.245.048 25.714.087.477.08.967-.022 1.441-.102.475-.296.924-.571 1.324-.276.399-.627.74-1.035 1.003-.407.264-.862.445-1.34.532-.477.088-.967.08-1.441-.021-.475-.102-.925-.296-1.324-.571-.399-.276-.741-.627-1.004-1.035-.264-.407-.444-.862-.532-1.339-.387-2.115-3.669-20.914.498-30.094.51-1.116 1.245-2.114 2.16-2.932.915-.817 1.99-1.436 3.156-1.818 1.134-.388 2.33-.562 3.527-.512z" fill="#04042b"/><path d="m267.814 76.476c-10.897 6.3303-19.004 16.5378-22.701 28.583-13.453 25.693-28.572 50.479-45.259 74.2-10.987 17.329-19.895 29.875-8.749 51.172 4.435 8.473 64.313-92.446 67.727-100.243 10.139-23.161 20.935-43.5668 20.935-43.5668l59.501-4.0029c1.159-.0688 2.279-.4483 3.241-1.0988 5.521 1.0999 8.555 3.2711 12.993 3.8515 3.261.6453 6.646.0516 9.493-1.665 2.846-1.7165 4.951-4.4327 5.901-7.6175-22.693-2.9044-82.819 2.1849-103.082.3875z" fill="url(#g)" opacity=".5"/><path d="m174.291 133.404c.737-1.338 1.795-2.472 3.08-3.299 1.285-.826 2.756-1.32 4.28-1.437 2.228.298 2.546 2.899.71 5.812-.738 1.338-1.796 2.471-3.081 3.298s-2.756 1.321-4.279 1.437c-2.229-.297-2.547-2.899-.71-5.811z" fill="#080830"/><path d="m224.696 292.468c.13 1.241.607 2.42 1.376 3.403.768.983 1.797 1.73 2.97 2.156 2.064.456 3.463-1.292 3.126-3.905-.13-1.241-.607-2.42-1.375-3.403-.769-.982-1.798-1.729-2.971-2.155-2.064-.457-3.463 1.291-3.126 3.904z" fill="#04042b"/><path d="m143.558 144.904c.625-1.311 1.531-2.468 2.654-3.389s2.434-1.584 3.842-1.942c2.019-.067 2.384 2.211.815 5.088-.626 1.311-1.532 2.468-2.655 3.389-1.122.921-2.434 1.584-3.842 1.942-2.019.067-2.383-2.21-.814-5.088z" fill="#080830"/><path d="m221.535 118.619c5.217.219 10.354 1.367 15.168 3.388 6.393 2.425 12.22 6.135 17.121 10.901s8.772 10.486 11.373 16.807c10.776 26.362 3.376 68.864-22.619 129.942-2.481 5.708-5.879 10.971-10.06 15.582-.68.696-1.608 1.094-2.581 1.109-.973.016-1.913-.354-2.615-1.028-.703-.673-1.11-1.597-1.135-2.569-.025-.973.335-1.916 1.002-2.625 3.561-3.974 6.465-8.491 8.603-13.38 25.176-59.148 32.561-99.796 22.57-124.238-2.216-5.427-5.537-10.335-9.751-14.412s-9.229-7.235-14.728-9.272c-21.884-9.039-45.352 3.764-68.022 37.022-.552.809-1.403 1.366-2.365 1.547-.963.182-1.958-.026-2.767-.578-.81-.552-1.366-1.402-1.548-2.365-.182-.962.026-1.957.578-2.766 23.534-34.53 45.022-43.716 61.776-43.065z" fill="#04042b"/><path d="m211.156 99.7173c3.819.1581 7.61.7237 11.308 1.6877 9.688 2.149 18.828 6.277 26.846 12.123 8.019 5.846 14.742 13.285 19.75 21.85 4.036 6.283 6.413 13.487 6.909 20.938-.25.86-.804 1.6-1.56 2.081-.755.482-1.66.672-2.545.536-.886-.136-1.691-.589-2.267-1.275s-.883-1.558-.863-2.453c-.278-1.945-6.127-35.849-48.106-46.657-8.188-2.291-16.88-2.037-24.921.726s-15.051 7.906-20.1 14.745c-.205.388-.274.833-.196 1.265.077.432.296.825.623 1.118l4.731 4.626c1.46 1.428-3.126 7.81-5.17 5.268l-4.676-4.566c-1.503-1.417-2.494-3.292-2.817-5.333-.323-2.04.04-4.129 1.033-5.941 4.664-6.742 10.97-12.184 18.322-15.812 7.353-3.629 15.509-5.3246 23.699-4.9267z" fill="#04042b"/><path d="m211.451 245.703c29.795-15.88 60.05-74.209 64.4-85.594 5.402-14.14 8.295-73.3977 8.295-73.3977 1.032-12.7884-27.789-16.3263-30.443-5.8551-3.71 14.6409-16.297 59.4938-18.93 65.3158-2.806 6.202-39.683 43.714-45.484 53.803-10.743 18.687 1.939 56.506 22.162 45.728z" fill="url(#h)"/><path d="m253.787 80.8788s-.459 2.1173-1.261 5.8238c-.867 3.6915-1.911 9.0179-3.594 15.2934-1.684 6.276-3.647 13.599-5.75 21.445-1.101 3.913-2.237 7.957-3.393 12.066-1.067 4.285-2.503 8.469-4.292 12.506-2.612 3.557-5.438 6.951-8.463 10.163-2.885 3.147-5.725 6.243-8.472 9.24-5.504 5.964-10.641 11.53-15.044 16.302-4.336 4.822-8.105 8.703-10.532 11.605-1.299 1.493-2.509 3.061-3.622 4.696.835-1.811 1.942-3.484 3.282-4.961 2.342-2.982 5.83-7.125 10.121-12.001 4.33-4.842 9.381-10.491 14.793-16.542 2.695-3.034 5.482-6.169 8.312-9.355 2.892-3.176 5.598-6.516 8.105-10.004 1.774-3.908 3.222-7.955 4.331-12.101 1.217-4.084 2.416-8.102 3.575-11.991 2.225-7.806 4.302-15.091 6.082-21.336 3.391-12.5361 5.652-20.8929 5.652-20.8929z" fill="url(#i)" opacity=".7"/><path d="m277.669 80.5149s-2.893 59.2571-8.295 73.3971c-4.351 11.385-34.606 69.714-64.401 85.594-1.939 1.174-4.152 1.817-6.418 1.865s-4.504-.5-6.492-1.589c.851 1.693 2.036 3.195 3.484 4.417s3.129 2.138 4.941 2.691c1.812.554 3.718.734 5.602.53 1.883-.204 3.706-.788 5.358-1.717 29.795-15.88 60.05-74.209 64.4-85.594 5.402-14.139 8.295-73.3975 8.295-73.3975-.012-2.1153-.688-4.1733-1.933-5.8836s-2.996-2.9864-5.006-3.6482c.399 1.0639.558 2.2028.465 3.3352z" fill="#04042b" opacity=".2"/><path d="m251.4 59.3976c1.038 2.461 2.628 4.6685 3.557 7.1722 1.336 5.245 2.144 10.6104 2.412 16.016.418 6.0144 20.047 8.9467 24.07 1.1545 1.914-3.7061 5.302-11.8134 8.089-19.1344.755-1.982 6.037-19.4275 3.228-22.1086-1.574-1.4999-4.182-1.7945-5.542 3.0787 4.298-10.0594-2.212-14.1244-4.807-8.6721-1.431 3.0068-1.856 5.9148-3.116 8.9968 1.091-4.4637 2.888-15.9458-3.23-15.658-1.749.0818-3.147 2.3012-3.434 4.0291-.385 2.3084-.292 8.3431-.388 11.0218-.263-5.662-.315-14.2312-5.514-12.9923-3.895.9291-2.738 15.3715-3.733 20.2974-.418 2.0741-.978 4.3002-1.533 6.7224-4.005-7.7151-14.136-9.5974-10.059.0765z" fill="#040407"/><path d="m95.3347 256.264c5.1593-8.073 12.4503-14.563 21.0683-18.753 18.712-9.278 39.553-8.61 53.396 3.454 2.323 1.668 4.246 3.831 5.629 6.333 1.384 2.502 2.194 5.28 2.372 8.133s-.281 5.71-1.343 8.365c-1.062 2.654-2.701 5.039-4.798 6.982-6.945 6.806-67.665 9.264-76.5028 2.329-4.8912-3.838-4.4012-9.509.1785-16.843z" fill="#040423"/><path d="m165.603 318.102c6.932-10.126 9.948-22.425 8.488-34.608-.475-6.391-.639-12.851-.519-19.258-2.445-6.903-6.725-13.009-12.381-17.662s-12.473-7.678-19.719-8.749c-1.257-.204-2.52-.378-3.787-.529-28.811-3.428-52.9586 22.666-58.3648 53.139 0 0-3.5112 2.246-3.6324 4.246-.2602 9.36 2.4385 18.564 7.7125 26.303 5.274 7.738 12.8546 13.618 21.6637 16.801 26.048 10.813 50.04-4.435 60.539-19.683z" fill="url(#j)"/><path d="m137.187 273.402c3.892-.219 7.681-1.339 11.066-3.272 3.386-1.932 6.277-4.624 8.444-7.863.684-1.39 1.023-2.924.989-4.472-.034-1.549-.44-3.066-1.184-4.425-2.687-4.007-6.585-7.051-11.125-8.688-33.046-10.572-59.8903 10.991-66.0575 45.753 0 0 14.8875-10.103 57.8675-17.033z" fill="url(#k)"/><path d="m144.168 265.464c1.994 2.323 1.87 5.641-7.222 6.68-32.916 4.985-49.2297 12.704-55.5944 15.241 5.7576-22.746 15.1191-30.735 37.3914-30.566 15.321-.1 23.431 6.322 25.425 8.645z" fill="url(#l)" opacity=".7"/><path d="m144.538 246.494c4.539 1.637 8.437 4.681 11.125 8.688.623 1.156 1.002 2.427 1.113 3.735.112 1.308-.046 2.625-.465 3.87.104-.187.292-.332.387-.522.683-1.39 1.022-2.924.989-4.472-.034-1.549-.44-3.067-1.184-4.425-2.688-4.007-6.586-7.051-11.125-8.688-27.173-8.693-50.1247 4.367-60.8635 28.601 4.6435-11.321 13.4696-20.42 24.6465-25.407 11.176-4.988 23.845-5.482 35.377-1.38z" fill="#141489" opacity=".4"/><path d="m103.024 212.643c17.49-10.918 36.635-18.929 56.69-23.72l13.242-29.184-9.55-9c-17.462 5.037-34.078 12.642-49.303 22.564-2.14 1.616-3.855 3.726-5 6.15l-13.0635 26.798z" fill="#16168d"/><path d="m159.714 188.921 13.244-29.179-9.555-9-13.05 29.032z" fill="#0e0e45"/><path d="m103.023 212.643c17.491-10.917 36.636-18.928 56.691-23.72l-9.358-9.151c-19.853 7.23-40.695 15.257-54.3164 26.48z" fill="url(#m)"/><path d="m132.184 331.18c5.712-8.808-.71-23.112-14.344-31.948s-29.3171-8.86-35.0294-.052c-5.7116 8.808.7106 23.111 14.3443 31.948 13.6341 8.836 29.3171 8.859 35.0291.052z" fill="url(#n)"/><path d="m198.975 67.9537-23.508 27.1513c8.216-5.6081 17.615-9.2456 27.466-10.6294l12.929-12.8172s-6.033-1.7979-13.581-3.3432c-1.095-.1834-2.198-.3041-3.306-.3615z" fill="url(#o)"/><path d="m103.673 197.612c.167.147.377.236.599.254s.444-.037.632-.156c12.769-7.347 26.224-13.43 40.175-18.163 1.061-.389 2.033-.986 2.859-1.757s1.488-1.7 1.948-2.731l8.217-18.295c.086-.186.114-.393.081-.595-.034-.202-.127-.389-.268-.537-.096-.107-.213-.194-.343-.255s-.272-.095-.415-.1c-.136-.006-.271.014-.399.057-15.038 4.498-29.27 11.342-42.17 20.279-1.09.839-1.968 1.922-2.562 3.161l-8.579 17.588c-.104.204-.138.437-.097.663.041.225.154.431.322.587zm9.146-18.446c.534-1.119 1.324-2.096 2.305-2.854 12.831-8.874 26.98-15.672 41.927-20.144.243.233-7.973 18.528-7.973 18.528-.412.923-1.005 1.755-1.745 2.445s-1.611 1.225-2.561 1.571c-14.005 4.755-27.513 10.865-40.33 18.244-.201-.203 8.377-17.79 8.377-17.79z" fill="#0e0e45"/><path d="m130.529 155.676c1.31-2.54 2.558-4.948 3.754-7.247-2.6-3.337-4.764-6.993-6.438-10.878-.28-.804-.338-1.669-.168-2.504.171-.834.564-1.608 1.137-2.238.574-.63 1.307-1.093 2.122-1.341s1.682-.272 2.51-.069c2.763.764 2.848 2.109 2.896 2.746-.053 1.594.222 3.183.807 4.668.586 1.484 1.469 2.833 2.595 3.963l3.643 3.576c2.177 2.794 7.556-3.257 5.17-5.268l-3.705-3.636c-.794-.745-.986-1.38-1.145-3.789-.165-2.254-1.067-4.392-2.566-6.084-1.498-1.693-3.511-2.847-5.73-3.285-.879-.247-1.785-.389-2.697-.423-1.982-.06-3.948.365-5.727 1.239s-3.317 2.171-4.479 3.776-1.913 3.471-2.188 5.433c-.275 1.963-.065 3.963.612 5.825 2.451 5.605 5.682 10.835 9.597 15.536z" fill="#04042b"/><g clip-rule="evenodd" fill-rule="evenodd"><path d="m239.739 205.835.026.764c.199.005.396.043.583.113.202.089.376.232.502.413.126.163.22.348.277.546.06.202.088.412.083.622-.002.213-.037.423-.103.625-.062.2-.157.389-.281.558-.106.156-.243.288-.402.388-.135.088-.29.137-.451.144-.159.006-.316-.03-.457-.103-.163-.087-.304-.209-.414-.357-.148-.189-.257-.404-.321-.635-.065-.239-.105-.485-.12-.732l-.626.067c.008.156.031.313.052.465.025.156.063.31.114.459.052.159.119.312.199.458.087.162.189.317.302.463.172.234.391.431.643.576.211.119.448.183.69.185.237-.002.47-.067.674-.189.234-.139.435-.328.589-.553.18-.25.316-.53.401-.826.182-.607.179-1.255-.008-1.86-.092-.301-.238-.582-.429-.831-.108-.144-.231-.276-.368-.393-.113-.096-.238-.175-.373-.236-.121-.055-.25-.093-.382-.113-.132-.021-.267-.027-.4-.018zm-8.22-4.915c-.039.056-.092.1-.152.131-.061.03-.128.044-.196.041-.178-.01-.347-.083-.478-.205-.152-.127-.282-.28-.382-.451-.111-.195-.2-.402-.263-.617l-.64.206c.068.265.176.517.321.749.155.241.349.456.573.635.149.125.317.226.498.299.156.065.325.096.494.092.157-.006.312-.047.452-.12.148-.082.276-.196.373-.335.106-.137.181-.295.22-.464.032-.151.03-.308-.004-.459-.041-.169-.108-.331-.199-.48-.11-.183-.232-.359-.364-.527-.126-.164-.224-.303-.294-.415-.06-.093-.109-.192-.145-.296-.025-.072-.031-.149-.017-.224.016-.068.046-.133.088-.19.042-.062.1-.112.168-.145.067-.033.143-.049.218-.044.19.019.369.098.511.227.194.154.354.348.469.568.113.231.194.477.24.73l.647-.135c-.053-.334-.166-.655-.334-.949-.163-.28-.375-.528-.626-.732-.158-.132-.335-.239-.526-.315-.164-.068-.34-.1-.517-.095-.166.006-.329.05-.475.131-.147.085-.276.199-.378.334-.103.136-.177.29-.22.455-.029.143-.027.292.005.434.038.165.102.322.191.466.107.18.225.354.353.519s.233.31.308.429c.065.098.116.203.154.315.026.075.033.156.021.234-.017.074-.049.143-.094.203zm-6.694-4.866c.583-.809 1.166-1.618 1.75-2.427-.211-.128-.422-.254-.635-.379-.814 1.129-1.628 2.257-2.442 3.385.229.134.457.27.683.407.753-.31 1.503-.616 2.25-.918-.021.766-.047 1.535-.075 2.309.219.148.438.298.655.449l2.441-3.385c-.202-.141-.405-.28-.61-.418-.581.806-1.162 1.612-1.744 2.417.015-.776.027-1.548.035-2.315l-.02-.013c-.76.292-1.523.588-2.288.888zm-5.639-3.96c.118-.167.266-.312.436-.426.168-.116.353-.205.548-.265.195-.057.398-.081.6-.07.207.01.409.061.596.15.178.08.334.2.458.35.11.135.186.294.224.465.035.172.031.35-.012.52-.045.187-.128.363-.243.517-.119.165-.266.308-.434.422-.166.113-.349.198-.542.253-.193.053-.393.073-.593.058-.206-.015-.407-.068-.594-.156-.176-.08-.334-.197-.46-.344-.113-.13-.192-.286-.231-.453s-.037-.342.006-.508c.046-.185.127-.359.241-.513zm-.731-.301c-.165.221-.281.476-.34.745-.053.245-.047.499.018.741.071.245.198.472.37.661.202.219.447.395.72.516.287.138.597.222.915.25.304.027.61.005.907-.066.29-.069.567-.187.817-.35.249-.16.465-.365.637-.605.165-.227.283-.484.345-.758.057-.253.056-.515-.002-.768-.063-.254-.185-.491-.355-.69-.196-.228-.439-.409-.713-.53-.289-.138-.602-.219-.921-.237-.621-.037-1.237.129-1.755.474-.249.165-.467.374-.643.617zm-3.492-.338c-.093.122-.23.204-.381.229-.191.036-.389.02-.571-.048-.179-.059-.344-.152-.488-.274-.144-.126-.267-.274-.366-.437l-.713.331c.113.204.265.384.447.53.218.166.464.293.726.375.196.067.399.107.605.12.194.014.389-.002.578-.047.179-.044.35-.115.507-.211.155-.095.289-.22.395-.367.101-.128.17-.277.202-.436.022-.128.002-.26-.056-.376-.069-.133-.165-.25-.281-.344-.15-.126-.309-.239-.475-.341-.162-.103-.288-.191-.382-.266-.077-.057-.144-.126-.198-.205-.036-.052-.052-.116-.044-.179.011-.065.039-.126.081-.177.05-.068.113-.125.186-.169.073-.043.153-.072.237-.084.205-.034.415-.014.61.057.224.068.43.187.6.348.152.155.273.338.357.538l.732-.271c-.103-.269-.272-.508-.491-.696-.234-.199-.506-.349-.799-.443-.206-.069-.42-.111-.636-.125-.203-.012-.405.006-.602.054-.188.047-.367.124-.531.228-.163.106-.305.241-.42.399-.09.117-.153.253-.182.397-.019.121-.002.244.05.354.065.128.156.241.268.332.146.121.3.233.46.335.138.085.271.176.4.274.082.06.154.134.211.219.038.055.055.121.05.187-.015.069-.044.133-.086.19zm19.771 12.797c.868-.06 1.727-.112 2.577-.154l-.043.179c-.055.196-.145.381-.265.546-.108.157-.247.29-.41.389-.145.09-.308.147-.477.167-.169.015-.34-.01-.497-.074-.179-.073-.34-.183-.472-.325-.145-.148-.26-.322-.339-.514zm1.67-2.014c.18.07.343.179.476.32.145.149.259.325.335.518.029.071.053.144.071.218-.855.046-1.718.102-2.59.168l.04-.176c.056-.195.144-.378.262-.542.11-.157.251-.291.413-.394.147-.093.314-.153.487-.175.171-.018.344.003.506.063zm.145-.719c-.248-.096-.514-.135-.779-.114-.261.022-.513.104-.737.24-.241.143-.448.335-.608.565-.172.239-.297.507-.371.792-.042.169-.069.342-.08.516-.57.046-1.144.096-1.721.15l.083.774c.577-.052 1.15-.099 1.719-.141.039.151.091.298.155.439.13.29.311.553.534.779.204.219.45.393.725.511.238.102.496.149.755.138.252-.014.497-.088.715-.216.237-.141.441-.331.6-.557.174-.241.303-.512.379-.801.047-.173.078-.35.092-.529.55-.023 1.095-.043 1.637-.06l-.045-.815c-.546.019-1.097.042-1.651.07-.036-.154-.084-.305-.144-.451-.122-.295-.3-.563-.523-.791-.206-.218-.457-.389-.735-.499z" fill="url(#p)"/><path d="m174.089 199.38c-6.987 1.09-11.794-2.773-10.738-8.628.973-3.268 2.862-6.188 5.443-8.417 2.58-2.228 5.745-3.671 9.12-4.158 6.987-1.09 11.794 2.773 10.737 8.628-.973 3.268-2.861 6.188-5.442 8.416-2.58 2.229-5.745 3.672-9.12 4.159z" fill="url(#q)"/><path d="m174.217 197.597c.04.037.093.056.147.054.066-.02.126-.055.175-.104.165-.143.311-.306.437-.485.431-.625.793-1.297 1.078-2.001.861-2.121 1.491-4.328 1.877-6.584.419-2.093.573-4.231.459-6.363-.029-.609-.164-1.208-.398-1.771-.063-.145-.159-.273-.282-.373-.04-.036-.092-.055-.147-.053-.066.019-.126.055-.175.104-.165.143-.311.306-.436.484-.432.626-.794 1.297-1.079 2.002-.861 2.12-1.491 4.328-1.877 6.584-.419 2.093-.573 4.231-.459 6.362.029.609.164 1.209.398 1.771.063.145.159.273.282.373zm-.716-8.429c-.925 5.127-.572 9.111.788 8.898 1.36-.212 3.212-4.54 4.137-9.666s.572-9.11-.788-8.898-3.212 4.54-4.137 9.666z" fill="#4c2eaf"/><path d="m166.025 194.492c-.05.116-.033.15-.03.156.003.005.024.038.148.052.207.011.413-.006.615-.051.819-.184 1.62-.441 2.393-.77 5.19-2.235 10.08-5.111 14.555-8.561.667-.519 1.285-1.096 1.849-1.725.139-.155.256-.329.349-.516.05-.116.032-.151.029-.156-.003-.006-.024-.038-.148-.052-.206-.012-.413.005-.615.051-.819.184-1.62.441-2.393.77-5.19 2.235-10.08 5.111-14.555 8.561-.666.519-1.285 1.096-1.848 1.725-.139.155-.257.329-.349.516zm20.374-11.846c-.502-.88-5.581 1.154-11.344 4.544s-10.028 6.852-9.526 7.732c.502.881 5.581-1.153 11.344-4.543s10.028-6.852 9.526-7.733z" fill="#4c2eaf"/><path d="m167.204 185.64c-.858 1.093 2.368 3.386 7.207 5.123 4.838 1.736 9.456 2.258 10.314 1.165.858-1.092-2.369-3.386-7.207-5.122s-9.456-2.258-10.314-1.166zm17.129 6.148c-.049.048-.11.083-.176.102-.203.074-.416.122-.631.144-.748.068-1.501.053-2.246-.047-2.239-.296-4.438-.84-6.557-1.622-1.998-.674-3.901-1.603-5.662-2.763-.507-.33-.952-.747-1.315-1.232-.093-.128-.153-.277-.178-.433-.011-.054-.001-.109.027-.156.05-.048.11-.083.176-.102.204-.074.416-.122.632-.144.748-.069 1.501-.053 2.246.046 2.239.296 4.438.841 6.557 1.623 1.998.674 3.901 1.602 5.662 2.763.507.33.952.747 1.315 1.231.092.129.153.277.177.434.011.053.002.109-.027.156" fill="#4c2eaf"/><path d="m182.574 190.279c-.431.068-.727-.17-.661-.531.059-.201.176-.381.335-.518.158-.138.353-.227.561-.257.43-.067.726.171.661.532-.06.201-.176.381-.335.518-.159.138-.354.226-.561.256z" fill="#6d5cd4"/><path d="m169.791 194.446c-.43.067-.727-.171-.661-.531.059-.202.176-.381.335-.519.159-.137.354-.226.562-.256.43-.067.726.171.661.532-.06.201-.176.381-.335.518s-.354.226-.562.256z" fill="#6d5cd4"/><path d="m178.51 183.125c-.43.067-.727-.171-.662-.531.06-.201.177-.381.336-.518.159-.138.354-.226.561-.256.431-.068.727.17.662.531-.06.201-.176.381-.335.518s-.354.226-.562.256z" fill="#6d5cd4"/><path d="m175.807 189.888c-.729.114-1.23-.289-1.12-.9.101-.34.298-.645.567-.877.27-.233.6-.383.952-.434.728-.114 1.23.289 1.119.9-.101.341-.298.645-.567.878-.269.232-.599.382-.951.433z" fill="#6d5cd4"/></g></svg>